<?xml version="1.0" encoding="UTF-8"?>
<svg id="Layer_2" data-name="Layer 2" xmlns="http://www.w3.org/2000/svg" viewBox="0 0 300 243.34">
  <defs>
    <style>
      .cls-1 {
        fill: #181716;
        stroke-width: 0px;
      }
    </style>
  </defs>
  <g id="Layer_2-2" data-name="Layer 2">
    <g id="Logo-Showcase">
      <path class="cls-1" d="M284.5,85.67l-.05-.07h0l-8.68-27.61-.09-.15c-.32-.52-7.93-12.65-22.41-14.21-11.71-1.27-24.26,4.74-37.34,17.88l-17.29-29.67-.29-.5L180.33,0l-22.55,88.75c-.52,2.06-2.38,3.51-4.51,3.51h-6.55c-2.13,0-3.99-1.45-4.51-3.51L119.66,0l-18.02,31.32-.29.5-17.29,29.67c-13.07-13.13-25.62-19.15-37.34-17.88-14.48,1.57-22.09,13.7-22.41,14.21l-.09.15-8.68,27.61h0l-.05.08L0,134.93l37.48-29.95c4.19-3.35,10.44-1.21,11.7,4l20.08,83,17.29-31.24.27-.48,17.99-32.51c6.5,7.22,8.39,12.73,13.05,16.94v71.91l24.43,26.73v-55.78c0-5.6-1.87-11.03-5.31-15.43l-7.45-9.53c-2.1-2.69-3.62-5.77-4.48-9.03-.6-2.28,2.02-4.04,3.93-2.65,3.68,2.67,6.82,4.36,9.7,5.44,3.55,1.33,6.68,1.72,9.91,1.83v.05l1.4-.02,1.4.02v-.05c3.23-.11,6.37-.5,9.91-1.83,2.88-1.08,6.02-2.78,9.7-5.44,1.91-1.39,4.53.37,3.93,2.65-.86,3.26-2.38,6.34-4.48,9.03l-7.45,9.53c-3.44,4.41-5.31,9.84-5.31,15.43v55.78l24.43-26.73v-71.91c4.66-4.21,6.55-9.72,13.05-16.94l17.99,32.51.27.48,17.29,31.24,20.08-83c1.26-5.21,7.51-7.35,11.7-4l37.48,29.95-15.49-49.26h0ZM46.45,94.22l-.7.56h0L5.45,126.98l7.34-23.34h.03s5.29-16.83,5.29-16.83c.73-1.08,4.24-6.03,10.28-9.44,8.27-4.68,17.48-4.51,27.39.49,2.09,1.06,4.23,2.34,6.37,3.83l-15.69,12.54h0ZM92.46,144.27c-2.35,4.24-8.69,3.39-9.83-1.33l-13.48-55.68c4.2,3.75,8.49,8.3,12.8,13.58,8.01,9.83,14.84,17.91,20.87,24.7l-10.37,18.73h0ZM92.89,71.34c-2.27-2.78-4.54-5.38-6.79-7.75l16.24-27.9,17.08,66.58c-7.28-7.85-16.01-18.03-26.53-30.93h0ZM147.63,125.63c-4.68-1.92-9.8-5.47-15.96-11.07-1.79-1.63-1.76-4.46.08-6.04l12.71-10.88,1.26-1.17c2.41-2.24,6.14-2.24,8.55,0l1.26,1.17,12.71,10.88c1.84,1.58,1.88,4.41.08,6.04-6.16,5.6-11.28,9.14-15.96,11.07-1.51.62-3.22.62-4.73,0h0ZM180.57,102.27l17.08-66.58,16.24,27.9c-2.24,2.37-4.52,4.97-6.79,7.75-10.52,12.9-19.25,23.08-26.53,30.93h0ZM217.36,142.95c-1.14,4.72-7.48,5.57-9.83,1.33l-10.37-18.73c6.03-6.78,12.86-14.87,20.87-24.7,4.31-5.28,8.6-9.84,12.8-13.58l-13.48,55.68h0ZM254.24,94.78h0l-.7-.56-15.69-12.54c2.14-1.49,4.28-2.77,6.37-3.83,9.9-5,19.11-5.17,27.39-.49,6.04,3.41,9.55,8.35,10.28,9.44.02.03.04.06.05.08h0s0,0,0,.01l5.27,16.73,7.34,23.34-40.3-32.19h0Z"/>
    </g>
  </g>
</svg>