<svg width="380" height="394" viewBox="0 0 380 394" fill="none" xmlns="http://www.w3.org/2000/svg">
<path fill-rule="evenodd" clip-rule="evenodd" d="M252.509 110.401C259.931 103.186 265.65 96.9818 265.198 86.4506L265.2 86.4521L265.224 74.2855C265.206 73.3646 264.234 72.5072 264.051 72.7988C263.813 73.1779 263.504 73.6771 263.137 74.271C260.11 79.1665 253.105 90.495 248.758 94.0286C243.546 98.2645 238.214 101.673 233.509 104.681L233.507 104.682C225.009 110.114 218.297 114.405 214.605 121.477C213.798 123.021 212.752 125.787 211.837 128.382C210.454 132.304 209.757 136.436 209.757 140.595V142.038C209.757 142.95 209.825 147.177 210.367 146.445L211.866 144.528C218.859 135.108 229.176 127.611 237.515 121.923L237.517 121.922C242.936 118.224 248.055 114.731 252.509 110.401ZM293.313 153.792L293.843 141.733V141.732C293.843 141.732 293.883 135.537 293.637 132.766C293.637 132.21 293.165 131.998 293.09 132.216C285.983 152.663 272.954 159.864 259.2 167.467C258.725 167.729 258.251 167.991 257.775 168.255C251.854 171.537 246.435 175.361 241.119 179.113C240.139 179.804 239.162 180.493 238.186 181.176C231.747 185.684 227.17 189.584 223.394 194.518C211.933 209.493 212.018 215.146 212.196 226.869C212.213 227.987 212.231 229.16 212.239 230.403C212.239 230.812 213.182 229.867 213.387 229.512C216.294 224.474 219.454 220.228 223.502 216.179C230.556 209.125 241.248 202.25 253.628 194.29C263.665 187.835 274.044 181.16 283.055 173.978C286.282 171.404 288.713 167.96 290.613 164.272C292.264 161.065 293.191 159.001 293.313 153.792ZM350.425 170.172C348.805 169.317 346.786 168.313 345.032 167.784H345.028L343.203 167.234C342.781 167.104 342.254 167.565 342.514 167.923C351.113 179.729 341.18 193.298 333.735 202.071C328.931 207.621 320.429 215.436 312.6 220.928C298.974 230.486 283.934 238.464 269.329 245.798C260.247 250.361 251.008 255.902 244.315 259.932C240.359 262.315 236.662 265.107 233.315 268.288C225.473 275.739 218.842 284.978 215.418 292.881C213.982 296.195 213.146 299.736 212.906 303.338L212.141 314.821C212.141 314.821 211.867 319.321 211.923 320.802C211.95 321.543 212.826 320.083 213.145 319.549L213.157 319.529C217.403 312.44 223.341 303.831 228.341 297.988C234.065 291.297 239.511 286.551 246.991 280.635C260.878 269.65 277.153 260.346 297.758 248.566C307.147 243.2 317.789 237.116 329.389 230.179C336.012 226.218 341.864 222.224 346.78 218.311C347.009 218.129 347.238 217.947 347.467 217.765C356.555 210.53 365.773 203.193 367.052 192.325C367.181 191.224 367.199 190.111 367.076 189.01C366.479 183.632 362.259 178.785 357.734 175.153C354.716 172.732 353.159 171.614 350.425 170.172ZM264.203 0.22988C264.204 0.230757 264.204 0.231636 264.205 0.232518L264.285 0.311906L269.364 5.39129C271.493 7.52033 272.746 10.3696 272.874 13.3777L275.444 81.9602C276.038 95.8098 270.799 109.324 260.859 118.988C255.661 124.042 249.919 127.96 244.265 131.817C236.537 137.089 228.972 142.25 223.181 150.05C209.182 168.906 208.677 186.238 209.432 189.41C209.477 189.594 210.346 189.295 210.867 188.539C219.34 176.224 235.395 167.158 250.306 158.739C264.08 150.961 276.878 143.735 281.815 135.009C290.966 118.835 291.318 73.4585 290.247 48.1106C290.207 47.1782 291.399 46.761 291.952 47.5131L298.39 56.276C300.191 58.7284 301.219 61.6643 301.34 64.7056L304.452 151.658C304.939 163.912 299.607 175.7 290.016 183.344C280.53 190.907 269.664 197.894 259.601 204.365C248.082 211.773 237.613 218.504 231.469 224.649C218.925 237.194 215.219 249.749 213.09 271.531C213.231 272.051 214.319 270.974 214.496 270.729C216.414 268.457 224.016 259.698 232.877 252.778C239.816 247.36 250.553 241.294 262.41 234.595C300.645 212.994 350.523 184.814 322.209 150.57C321.728 149.99 321.011 149.03 320.486 148.318C320.217 147.953 320.503 147.442 320.955 147.481C321.616 147.538 323.409 148.192 324.062 148.431C324.152 148.464 324.221 148.489 324.262 148.503C326.257 149.208 330.306 150.435 331.918 150.924C332.204 151.01 332.413 151.074 332.521 151.107C400.633 172.146 389.894 207.952 335.536 240.457C323.836 247.454 313.283 253.487 303.704 258.964C263.268 282.082 240.179 295.283 221.337 329.177C213.19 343.833 212.472 356.297 211.922 365.834C211.734 369.093 211.566 372.01 211.128 374.556C210.321 379.248 208.399 383.674 205.525 387.469L201.547 392.723C201.001 393.445 199.849 393.06 199.849 392.153V133.056C199.849 127.1 201.226 121.21 203.983 115.931C209.154 106.028 217.729 100.546 227.053 94.5862C236.332 88.6546 246.352 82.2495 254.493 70.5428C264.21 56.569 263.211 10.9528 262.86 0.817101C262.836 0.102474 263.697 -0.271311 264.203 0.229759C264.203 0.229799 264.203 0.22984 264.203 0.22988ZM115.953 72.7976C115.769 72.5061 114.797 73.3635 114.78 74.2844L114.781 74.2829L114.806 86.4495C114.354 96.9806 120.074 103.184 127.495 110.4C131.949 114.73 137.068 118.223 142.488 121.92L142.489 121.921C150.828 127.61 161.145 135.107 168.139 144.527L169.637 146.444C170.18 147.175 170.247 142.949 170.247 142.037V140.593C170.247 136.435 169.55 132.304 168.168 128.381C167.252 125.785 166.206 123.02 165.399 121.475C161.707 114.404 154.995 110.113 146.498 104.681L146.496 104.68C141.791 101.672 136.458 98.2633 131.246 94.0274C126.899 90.4938 119.894 79.1649 116.867 74.2695C116.5 73.6758 116.192 73.1767 115.953 72.7976ZM86.9147 132.217C86.8397 131.999 86.3677 132.212 86.3677 132.767V132.769C86.1209 135.54 86.1613 141.735 86.1613 141.735L86.691 153.793C86.8137 159.003 87.7404 161.067 89.3916 164.274C91.2897 167.964 93.7219 171.408 96.9494 173.98C105.953 181.158 116.322 187.826 126.352 194.276L126.376 194.291C138.756 202.252 149.448 209.127 156.502 216.181C160.549 220.23 163.709 224.476 166.617 229.514C166.822 229.869 167.765 230.814 167.765 230.404C167.774 229.163 167.791 227.99 167.809 226.872C167.987 215.149 168.073 209.496 156.61 194.519C152.834 189.586 148.257 185.686 141.818 181.178C140.849 180.499 139.878 179.814 138.904 179.127C133.582 175.37 128.157 171.541 122.229 168.257C121.753 167.992 121.277 167.729 120.801 167.466C107.048 159.863 94.0206 152.661 86.9147 132.217ZM37.4864 167.923C37.7477 167.567 37.2194 167.106 36.7965 167.235H36.7921L34.9677 167.785C33.2139 168.313 31.1946 169.317 29.5751 170.172C26.8412 171.614 25.2838 172.731 22.2656 175.153C17.7405 178.785 13.5214 183.632 12.9238 189.01C12.8026 190.111 12.8184 191.226 12.9483 192.326C14.2267 203.194 23.4446 210.531 32.5314 217.763C32.761 217.946 32.9904 218.129 33.2197 218.311C38.136 222.224 43.9876 226.218 50.6114 230.179C62.2121 237.115 72.853 243.199 82.2424 248.567C102.847 260.346 119.122 269.651 133.009 280.635C140.49 286.552 145.935 291.298 151.659 297.988C156.659 303.832 162.597 312.441 166.842 319.529L166.857 319.554C167.179 320.091 168.048 321.542 168.077 320.803C168.133 319.322 167.859 314.821 167.859 314.821L167.094 303.339C166.853 299.736 166.017 296.194 164.582 292.881C161.158 284.978 154.527 275.739 146.685 268.288C143.338 265.107 139.641 262.315 135.685 259.932C128.993 255.901 119.752 250.359 110.67 245.798C96.0674 238.463 81.0256 230.487 67.3998 220.928C59.5707 215.436 51.069 207.621 46.2653 202.071C38.8201 193.298 28.8865 179.729 37.4864 167.923ZM110.636 5.39445L115.715 0.31507H115.712L115.795 0.232795C116.301 -0.2724 117.164 0.102888 117.14 0.817379C116.789 10.953 115.79 56.5679 125.507 70.543C133.649 82.2512 143.669 88.6566 152.948 94.5885C162.271 100.548 170.847 106.03 176.017 115.931C178.772 121.21 180.151 127.1 180.151 133.056V392.156C180.151 393.061 179 393.448 178.453 392.727L174.475 387.472C171.603 383.678 169.679 379.251 168.872 374.56C168.434 372.014 168.266 369.096 168.078 365.837C167.528 356.3 166.81 343.836 158.663 329.18C139.82 295.285 116.732 282.085 76.2971 258.968C66.7177 253.491 56.1647 247.458 44.4639 240.461C-9.89372 207.956 -20.6327 172.151 47.4792 151.11C47.5904 151.076 47.8115 151.009 48.1146 150.917C49.7471 150.422 53.7552 149.206 55.7384 148.506C55.7814 148.491 55.8541 148.465 55.95 148.43C56.6143 148.188 58.3881 147.541 59.0453 147.484C59.4971 147.445 59.7829 147.956 59.5144 148.322C58.989 149.033 58.2716 149.993 57.7909 150.573C29.4759 184.817 79.3554 212.997 117.59 234.599C129.447 241.297 140.184 247.363 147.123 252.782C155.984 259.701 163.586 268.46 165.504 270.732C165.681 270.977 166.769 272.054 166.91 271.534C164.783 249.752 161.076 237.197 148.531 224.652C142.386 218.507 131.917 211.774 120.395 204.365C110.333 197.895 99.4694 190.909 89.9835 183.347C80.3934 175.703 75.06 163.916 75.5479 151.662L78.6599 64.7087C78.7811 61.6675 79.8088 58.7316 81.6102 56.2792L88.0478 47.5162C88.5992 46.7642 89.7915 47.1813 89.7525 48.1138C88.6829 73.4616 89.0351 118.838 98.1849 135.012C103.122 143.738 115.919 150.964 129.694 158.742C144.605 167.161 160.66 176.227 169.133 188.542C169.654 189.299 170.525 189.597 170.568 189.413C171.323 186.241 170.818 168.909 156.819 150.054C151.029 142.253 143.463 137.092 135.735 131.82C130.08 127.962 124.338 124.045 119.14 118.991C109.203 109.328 103.963 95.8129 104.556 81.9633L107.125 13.3809C107.254 10.3728 108.507 7.52349 110.636 5.39445Z" fill="#F3F0EB"/>
</svg>
