<?xml version="1.0" encoding="UTF-8"?>
<svg id="Layer_2" data-name="Layer 2" xmlns="http://www.w3.org/2000/svg" viewBox="0 0 846.08 686.29">
  <defs>
    <style>
      .cls-1 {
        fill: #181716;
        stroke-width: 0px;
      }
    </style>
  </defs>
  <g id="Logo-Showcase">
    <path class="cls-1" d="M802.38,241.61l-.15-.2h0s-24.49-77.87-24.49-77.87l-.26-.42c-.89-1.46-22.36-35.67-63.19-40.09-33.03-3.59-68.42,13.38-105.3,50.42l-48.75-83.69-.82-1.42L508.6,0l-63.6,250.31c-1.48,5.82-6.72,9.9-12.73,9.9h-18.46c-6.02,0-11.25-4.08-12.73-9.9L337.48,0l-50.83,88.34-.82,1.42-48.75,83.69c-36.87-37.04-72.26-54.01-105.3-50.42-40.83,4.42-62.29,38.63-63.19,40.09l-.26.42-24.49,77.86h0s-.15.22-.15.22L0,380.55l105.7-84.46c11.83-9.45,29.45-3.42,33.01,11.28l56.64,234.1,48.76-88.11.75-1.35,50.74-91.68c18.34,20.37,23.66,35.91,36.8,47.77v202.8l68.91,75.39v-157.33c0-15.78-5.28-31.1-14.99-43.52l-21-26.88c-5.93-7.59-10.21-16.27-12.64-25.46-1.7-6.44,5.69-11.39,11.09-7.48,10.37,7.52,19.24,12.3,27.36,15.35,10,3.75,18.85,4.86,27.96,5.17v.15l3.96-.06,3.96.06v-.15c9.1-.31,17.96-1.42,27.96-5.17,8.12-3.04,16.99-7.83,27.36-15.35,5.39-3.91,12.79,1.04,11.09,7.48-2.43,9.2-6.71,17.87-12.64,25.46l-21,26.88c-9.71,12.43-14.99,27.74-14.99,43.52v157.33l68.91-75.39v-202.8c13.14-11.86,18.46-27.4,36.8-47.77l50.74,91.68.75,1.35,48.76,88.11,56.64-234.1c3.56-14.7,21.18-20.73,33.01-11.28l105.7,84.46-43.7-138.94ZM131.01,265.74l-1.98,1.57h0S15.36,358.12,15.36,358.12l20.71-65.83.08.02,14.93-47.48c2.05-3.06,11.96-17,28.99-26.62,23.32-13.2,49.31-12.73,77.24,1.37,5.89,2.98,11.92,6.6,17.96,10.8l-44.25,35.36ZM260.76,406.9c-6.63,11.97-24.5,9.56-27.72-3.74l-38.01-157.05c11.84,10.57,23.95,23.42,36.1,38.31,22.6,27.71,41.86,50.51,58.86,69.65l-29.24,52.83ZM261.97,201.2c-6.39-7.84-12.81-15.17-19.14-21.85l45.81-78.69,48.17,187.77c-20.54-22.14-45.15-50.84-74.83-87.23ZM416.37,354.33c-13.19-5.42-27.64-15.43-45.01-31.21-5.06-4.6-4.97-12.58.23-17.03l35.86-30.69,3.54-3.29c6.79-6.32,17.31-6.32,24.1,0l3.54,3.29,35.86,30.69c5.19,4.45,5.29,12.43.23,17.03-17.37,15.78-31.81,25.79-45.01,31.21-4.27,1.76-9.07,1.76-13.34,0ZM509.28,288.43l48.17-187.77,45.81,78.69c-6.33,6.68-12.76,14.01-19.14,21.85-29.68,36.39-54.3,65.09-74.83,87.23ZM613.04,403.16c-3.22,13.3-21.09,15.71-27.72,3.74l-29.24-52.83c17-19.13,36.26-41.94,58.86-69.65,12.16-14.9,24.26-27.74,36.1-38.31l-38.01,157.05ZM717.05,267.32h0s-1.98-1.59-1.98-1.59l-44.25-35.36c6.04-4.19,12.06-7.82,17.96-10.8,27.92-14.1,53.91-14.57,77.24-1.37,17.03,9.62,26.94,23.56,28.99,26.62.06.08.1.16.15.23h0s.01.02.01.03l14.85,47.19,20.71,65.83-113.67-90.8Z"/>
  </g>
</svg>