<?xml version="1.0" encoding="utf-8"?>
<!-- Generator: Adobe Illustrator 28.3.0, SVG Export Plug-In . SVG Version: 6.00 Build 0)  -->
<svg version="1.1" id="Layer_2_00000101802314330909262130000010008868366770652342_"
	 xmlns="http://www.w3.org/2000/svg" xmlns:xlink="http://www.w3.org/1999/xlink" x="0px" y="0px" viewBox="0 0 300 300"
	 style="enable-background:new 0 0 300 300;" xml:space="preserve">
<style type="text/css">
	.st0{fill:#181716;}
</style>
<g id="Logo-Showcase">
	<path class="st0" d="M-82.9,241.6l-0.2-0.2l0,0l-24.5-77.9l-0.3-0.4c-0.9-1.5-22.4-35.7-63.2-40.1c-33-3.6-68.4,13.4-105.3,50.4
		l-48.8-83.7l-0.8-1.4L-376.7,0l-63.6,250.3c-1.5,5.8-6.7,9.9-12.7,9.9h-18.5c-6,0-11.2-4.1-12.7-9.9L-547.8,0l-50.8,88.3l-0.8,1.4
		l-48.8,83.7c-36.9-37-72.3-54-105.3-50.4c-40.8,4.4-62.3,38.6-63.2,40.1l-0.3,0.4l-24.5,77.9l0,0l-0.2,0.2l-43.7,138.9l105.7-84.5
		c11.8-9.5,29.5-3.4,33,11.3l56.6,234.1l48.8-88.1l0.8-1.4l50.7-91.7c18.3,20.4,23.7,35.9,36.8,47.8v202.8l68.9,75.4V529
		c0-15.8-5.3-31.1-15-43.5l-21-26.9c-5.9-7.6-10.2-16.3-12.6-25.5c-1.7-6.4,5.7-11.4,11.1-7.5c10.4,7.5,19.2,12.3,27.4,15.4
		c10,3.8,18.9,4.9,28,5.2v0.1l4-0.1l4,0.1v-0.1c9.1-0.3,18-1.4,28-5.2c8.1-3,17-7.8,27.4-15.4c5.4-3.9,12.8,1,11.1,7.5
		c-2.4,9.2-6.7,17.9-12.6,25.5l-21,26.9c-9.7,12.4-15,27.7-15,43.5v157.3l68.9-75.4V408.1c13.1-11.9,18.5-27.4,36.8-47.8l50.7,91.7
		l0.8,1.4l48.8,88.1l56.6-234.1c3.6-14.7,21.2-20.7,33-11.3l105.7,84.5L-82.9,241.6L-82.9,241.6z M-754.3,265.7l-2,1.6l0,0
		l-113.7,90.8l20.7-65.8l0.1,0l14.9-47.5c2-3.1,12-17,29-26.6c23.3-13.2,49.3-12.7,77.2,1.4c5.9,3,11.9,6.6,18,10.8L-754.3,265.7
		L-754.3,265.7z M-624.5,406.9c-6.6,12-24.5,9.6-27.7-3.7l-38-157.1c11.8,10.6,24,23.4,36.1,38.3c22.6,27.7,41.9,50.5,58.9,69.6
		L-624.5,406.9L-624.5,406.9z M-623.3,201.2c-6.4-7.8-12.8-15.2-19.1-21.9l45.8-78.7l48.2,187.8C-569,266.3-593.6,237.6-623.3,201.2
		L-623.3,201.2z M-468.9,354.3c-13.2-5.4-27.6-15.4-45-31.2c-5.1-4.6-5-12.6,0.2-17l35.9-30.7l3.5-3.3c6.8-6.3,17.3-6.3,24.1,0
		l3.5,3.3l35.9,30.7c5.2,4.5,5.3,12.4,0.2,17c-17.4,15.8-31.8,25.8-45,31.2C-459.9,356.1-464.7,356.1-468.9,354.3L-468.9,354.3z
		 M-376,288.4l48.2-187.8l45.8,78.7c-6.3,6.7-12.8,14-19.1,21.9C-330.9,237.6-355.5,266.3-376,288.4L-376,288.4z M-272.3,403.2
		c-3.2,13.3-21.1,15.7-27.7,3.7l-29.2-52.8c17-19.1,36.3-41.9,58.9-69.6c12.2-14.9,24.3-27.7,36.1-38.3L-272.3,403.2L-272.3,403.2z
		 M-168.3,267.3L-168.3,267.3l-2-1.6l-44.2-35.4c6-4.2,12.1-7.8,18-10.8c27.9-14.1,53.9-14.6,77.2-1.4c17,9.6,26.9,23.6,29,26.6
		c0.1,0.1,0.1,0.2,0.2,0.2l0,0c0,0,0,0,0,0l14.8,47.2l20.7,65.8L-168.3,267.3L-168.3,267.3z"/>
</g>
<g id="Logo-Showcase_00000163040952203847547870000006372148859832495495_">
	<path class="st0" d="M284.5,114L284.5,114L284.5,114l-8.7-27.7l-0.1-0.1c-0.3-0.5-7.9-12.6-22.4-14.2c-11.7-1.3-24.3,4.7-37.3,17.9
		l-17.3-29.7l-0.3-0.5l-18-31.3l-22.6,88.8c-0.5,2.1-2.4,3.5-4.5,3.5h-6.5c-2.1,0-4-1.4-4.5-3.5l-22.6-88.8l-18,31.3l-0.3,0.5
		L84.1,89.8C71,76.7,58.4,70.7,46.7,72c-14.5,1.6-22.1,13.7-22.4,14.2l-0.1,0.1l-8.7,27.6l0,0l-0.1,0.1L0,163.3l37.5-29.9
		c4.2-3.4,10.4-1.2,11.7,4l20.1,83l17.3-31.2l0.3-0.5l18-32.5c6.5,7.2,8.4,12.7,13,16.9v71.9l24.4,26.7v-55.8c0-5.6-1.9-11-5.3-15.4
		l-7.4-9.5c-2.1-2.7-3.6-5.8-4.5-9c-0.6-2.3,2-4,3.9-2.7c3.7,2.7,6.8,4.4,9.7,5.4c3.5,1.3,6.7,1.7,9.9,1.8v0.1l1.4,0l1.4,0v-0.1
		c3.2-0.1,6.4-0.5,9.9-1.8c2.9-1.1,6-2.8,9.7-5.4c1.9-1.4,4.5,0.4,3.9,2.7c-0.9,3.3-2.4,6.3-4.5,9l-7.4,9.5
		c-3.4,4.4-5.3,9.8-5.3,15.4v55.8l24.4-26.7V173c4.7-4.2,6.5-9.7,13-16.9l18,32.5l0.3,0.5l17.3,31.2l20.1-83c1.3-5.2,7.5-7.4,11.7-4
		l37.5,29.9L284.5,114L284.5,114z M46.5,122.6l-0.7,0.6l0,0L5.4,155.3l7.3-23.3l0,0l5.3-16.8c0.7-1.1,4.2-6,10.3-9.4
		c8.3-4.7,17.5-4.5,27.4,0.5c2.1,1.1,4.2,2.3,6.4,3.8L46.5,122.6L46.5,122.6z M92.5,172.6c-2.4,4.2-8.7,3.4-9.8-1.3l-13.5-55.7
		c4.2,3.7,8.5,8.3,12.8,13.6c8,9.8,14.8,17.9,20.9,24.7L92.5,172.6L92.5,172.6z M92.9,99.7c-2.3-2.8-4.5-5.4-6.8-7.7L102.3,64
		l17.1,66.6C112.1,122.7,103.4,112.6,92.9,99.7L92.9,99.7z M147.6,154c-4.7-1.9-9.8-5.5-16-11.1c-1.8-1.6-1.8-4.5,0.1-6l12.7-10.9
		l1.3-1.2c2.4-2.2,6.1-2.2,8.5,0l1.3,1.2l12.7,10.9c1.8,1.6,1.9,4.4,0.1,6c-6.2,5.6-11.3,9.1-16,11.1
		C150.8,154.6,149.1,154.6,147.6,154L147.6,154z M180.6,130.6L197.7,64l16.2,27.9c-2.2,2.4-4.5,5-6.8,7.7
		C196.6,112.6,187.9,122.7,180.6,130.6L180.6,130.6z M217.4,171.3c-1.1,4.7-7.5,5.6-9.8,1.3l-10.4-18.7c6-6.8,12.9-14.9,20.9-24.7
		c4.3-5.3,8.6-9.8,12.8-13.6L217.4,171.3L217.4,171.3z M254.2,123.1L254.2,123.1l-0.7-0.6L237.9,110c2.1-1.5,4.3-2.8,6.4-3.8
		c9.9-5,19.1-5.2,27.4-0.5c6,3.4,9.6,8.4,10.3,9.4c0,0,0,0.1,0.1,0.1l0,0c0,0,0,0,0,0l5.3,16.7l7.3,23.3L254.2,123.1L254.2,123.1z"
		/>
</g>
</svg>
